<svg id="Layer_1" data-name="Layer 1" xmlns="http://www.w3.org/2000/svg" width="1.38in" height="1.24in" viewBox="0 0 99.35 89.06">
  <title>envelope</title>
  <path d="M99.52,15a2.61,2.61,0,0,0,0-.28,1.35,1.35,0,0,0,0-.28s0,0,0-.07a1.29,1.29,0,0,0-.09-.16,1,1,0,0,0-.15-.25c0-.07-.12-.12-.18-.19l-.22-.16a1.45,1.45,0,0,0-.26-.11l-.19-.07L29.14,1.25c-.06,0-.12,0-.19,0h-.28l-.26.08-.24.11a1.37,1.37,0,0,0-.23.19c0,.05-.1.07-.14.12s0,0,0,.06a1.15,1.15,0,0,0-.12.25,1.19,1.19,0,0,0-.11.26s0,0,0,.06L20.91,39.91a1.34,1.34,0,0,0,0,.2,1.51,1.51,0,0,0,0,.3,1.9,1.9,0,0,0,.1.28,1,1,0,0,0,.06.18l0,0a1.18,1.18,0,0,0,.31.32s0,.07.09.09a1.46,1.46,0,0,0,.53.22l9.12,1.6-30,7.42a.58.58,0,0,0-.18.08,2.06,2.06,0,0,0-.26.12,1.71,1.71,0,0,0-.2.18c-.06.07-.12.12-.18.2a2.1,2.1,0,0,0-.13.26c0,.06-.06.11-.08.17v.06a1.42,1.42,0,0,0,0,.29.82.82,0,0,0,0,.27.16.16,0,0,0,0,.07l9.15,37c0,.06.06.11.09.18a1,1,0,0,0,.13.27,1.37,1.37,0,0,0,.2.22c.05,0,.08.1.14.14l0,0a1.62,1.62,0,0,0,.41.17.56.56,0,0,0,.12,0,1.22,1.22,0,0,0,.57,0L79.29,73.37a1.28,1.28,0,0,0,.51-.25.76.76,0,0,1,.09-.09,1.66,1.66,0,0,0,.28-.35l0,0a1.46,1.46,0,0,0,0-.2.9.9,0,0,0,.08-.28,1,1,0,0,0,0-.3,1.34,1.34,0,0,0,0-.2L75.16,50.88l16.13,2.84a1.62,1.62,0,0,0,.58,0l.11-.05a1.5,1.5,0,0,0,.4-.2l0,0c.06,0,.08-.11.13-.16a1.06,1.06,0,0,0,.19-.23,1.17,1.17,0,0,0,.11-.28,1,1,0,0,0,.07-.18l6.6-37.52S99.52,15,99.52,15Zm-7.09.24L60.49,25.91l-6.71-5.33L34.12,5ZM29.88,5.2l20.6,16.36L24.22,37.36ZM38,44.35l6.74-1.67,20-5L57,44.83l-2.62,2.39L39.87,60.42l-8.31-2.15L7.27,52ZM3.48,53.88,29,60.49,11.33,85.57ZM14,86.64l17.83-25.4,8,2.09a1.2,1.2,0,0,0,.2,0l.13,0a1.47,1.47,0,0,0,.36,0h0a1.51,1.51,0,0,0,.33-.13l.11-.08L41.2,63l6.14-5.6L75,71.55ZM76.84,69.35l-27.28-14,8.28-7.55,2.62-2.4L69,37.66l2.4,9.71.74,3ZM74.43,47.9,71.16,34.7s0,0,0-.06a2.06,2.06,0,0,0-.12-.26.87.87,0,0,0-.15-.24s0,0,0,0a.83.83,0,0,0-.15-.11,1.37,1.37,0,0,0-.24-.18,1.84,1.84,0,0,0-.25-.09l-.26-.07-.28,0a.67.67,0,0,0-.2,0L37.92,41.48,26.24,39.42l26.6-16,6.5,5.16.18.11.11.07a1.46,1.46,0,0,0,.34.1h0a1.45,1.45,0,0,0,.36,0l.13,0,.2,0,7.88-2.63L88.08,50.3Zm16.26,1.15L71.39,25.24l25-8.34Z" transform="translate(-0.17 -1.24)"/>
</svg>
