<svg xmlns="http://www.w3.org/2000/svg" width="732" height="695" viewBox="0 0 732 695">
  <defs>
    <style>
      .cls-1 {
        fill: #fe5000;
      }
    </style>
  </defs>
  <title>logo-04</title>
  <g id="Layer_3" data-name="Layer 3">
    <rect class="cls-1" x="368.72" y="192.71" width="160.06" height="369.43"/>
    <polygon class="cls-1" points="669.97 192.69 554.78 192.7 554.81 564.65 608.02 626.64 732 626.63 731.97 254.68 669.97 192.69"/>
    <polygon class="cls-1" points="282.44 50.3 62.31 50.3 0.32 112.29 0.32 560.27 70.1 560.27 70.1 560.27 148.02 560.27 148.02 499.9 70.1 499.9 70.1 113.48 282.44 113.48 282.44 164.94 342.81 164.94 342.81 50.3 282.44 50.3"/>
    <polygon class="cls-1" points="171.5 190.87 171.51 281.81 257.16 281.8 257.16 359.25 171.51 359.26 171.53 560.3 342.83 560.28 342.8 190.85 171.5 190.87"/>
  </g>
</svg>
